<svg id="Layer_1" data-name="Layer 1" xmlns="http://www.w3.org/2000/svg" xmlns:xlink="http://www.w3.org/1999/xlink" viewBox="0 0 68.77 68.73"><defs><style>.cls-1,.cls-4{fill:#fff;}.cls-2,.cls-4,.cls-5,.cls-6{fill-rule:evenodd;}.cls-3{mask:url(#mask);}.cls-5{fill:#123466;}.cls-6{fill:#f8f86a;}</style><mask id="mask" x="0" y="0" width="68.86" height="68.86" maskUnits="userSpaceOnUse"><g id="b"><rect id="a" class="cls-1" width="68.86" height="68.86"/></g></mask></defs><title>mediaCool_logo</title><polygon class="cls-2" points="6.76 28.43 11.01 36.53 20.29 44.68 30.72 64.9 24.29 66.09 6.76 52.1 2.73 38.25 3.3 27.03 6.76 28.43"/><polygon class="cls-2" points="6 21.15 7.79 30.68 16.33 40.5 20.05 40.5 23.78 21.68 36.47 10.54 50.66 8.75 47.22 4.23 30.01 2.37 17.54 5.81 10.95 11.76 6 21.15"/><polygon class="cls-2" points="22.95 45.77 41.42 43.8 59.69 29.75 63.06 23.27 67.29 29.89 64.96 46.02 52.45 62.01 40.55 66.09 32.31 66.09 24.92 54.19 22.95 45.77"/><g class="cls-3"><path class="cls-4" d="M35.11,64.9A33.72,33.72,0,0,1,23.49,47.78c-.2-.67-.37-1.34-.54-2a28.5,28.5,0,0,0,7.77,1.07c12.8,0,25.78-8.23,32.09-21.61.15-.32.28-.64.43-1A30.53,30.53,0,0,1,35.11,64.9ZM3.82,34.36a30.5,30.5,0,0,1,.58-5.93A27.7,27.7,0,0,0,18.73,44.21a39.51,39.51,0,0,0,1.11,4.67,38,38,0,0,0,9,15.52,30.59,30.59,0,0,1-25-30ZM34.39,3.82a30.43,30.43,0,0,1,14.76,3.8,26.14,26.14,0,0,0-4.5-.4,24.76,24.76,0,0,0-7.15,1C25,12.05,17.44,25.09,18.2,39.55,11.82,35.66,7.82,29,6.76,21.3A30.62,30.62,0,0,1,34.39,3.82ZM60.88,19.17a34.74,34.74,0,0,1-1.76,4.51C53.66,35.25,42.25,43,30.72,43a24,24,0,0,1-8.53-1.53,31.68,31.68,0,0,1,2.27-16.36c2.88-6.63,7.91-11.32,14.15-13.2a20.55,20.55,0,0,1,6-.9,24.31,24.31,0,0,1,13.8,4.52,30.9,30.9,0,0,1,2.43,3.62Zm6.75,6.37A34.65,34.65,0,0,0,65.13,19a35.18,35.18,0,0,0-3.06-5c-.29-.38-.57-.76-.87-1.14A34.4,34.4,0,0,0,6.62,14.09a34.89,34.89,0,0,0-4,7A34.37,34.37,0,0,0,33.93,68.72h.46a34,34,0,0,0,6.25-.58A34.36,34.36,0,0,0,68.77,34.37a34.75,34.75,0,0,0-1.14-8.83Z"/></g><ellipse cx="35.22" cy="35.86" rx="6.37" ry="5.62" transform="translate(-5.09 5.84) rotate(-8.84)"/><path class="cls-5" d="M72.38,56"/><path class="cls-6" d="M11.81,16.7"/><path class="cls-2" d="M60.08,21.43,51.34,34.37A34.66,34.66,0,0,0,53.42,24c.34-6-.49-9.09,3.09-5.82"/><path class="cls-5" d="M54.56,24.27Z"/><path class="cls-5" d="M54.56,24.27"/><path class="cls-5" d="M54.56,24.27Z"/><path class="cls-5" d="M54.56,24.27Z"/></svg>